<?xml version="1.0" encoding="utf-8"?>
<!-- Generator: Adobe Illustrator 21.1.0, SVG Export Plug-In . SVG Version: 6.00 Build 0)  -->
<svg version="1.1" id="Layer_1" xmlns="http://www.w3.org/2000/svg" xmlns:xlink="http://www.w3.org/1999/xlink" x="0px" y="0px"
	 viewBox="0 0 190.4 130" style="enable-background:new 0 0 190.4 130;" xml:space="preserve">
<g>
	<path fill="#333" d="M123.4,130c-2.2-0.8-4.5,0.4-6.7-0.4c-1.6-2.8-0.5-4.8,1.9-6.3c1.3-0.8,2.5-1.6,2.4-3.4c-0.3-6.9-6.5-14.5-13.3-16
		c-5.6-1.2-10.7-3.3-14.7-7.6c-1.4-1.5-2.8-3.3-5.2-3.3c-0.9,1.2-0.3,2.2,0.5,2.7c5.8,3.8,4.6,8.2,1.3,13c-0.9,1.3-1.1,3.1-1.6,4.7
		c-1.7,4.8-3.4,11.3-5.7,15.9c-5.5,1.8-10.6,0.7-14.5,0.4c-3.1-3.7-0.8-5.5,2.4-6.7c2.8-1.1,5.8-1.9,6.8-5.3
		c1.1-3.8,2.3-7.6,3.3-11.5c0.7-2.9,0.1-5.2-3.2-6.2c-3.4-1.1-6-3.5-8-6.5c-1.3-1.9-2.8-2.6-5.1-2c-1.8,0.4-3.7,0.6-5.4,0.3
		c-2.9-0.5-4.2,0.9-5.2,3.4c-1.9,5-3.6,10.2-3.2,15.5c0.7,8.2-0.9,15-8.9,19.2c-2.4-0.3-4.8,0.5-7.3-0.9c-3.4-3.2-3.3-6.2,0.8-7.3
		c3.9-1.1,4.9-3.6,5.4-6.8c1.1-7.2-0.1-13.9-4-20.1c-1-1.7-2.2-3.3-4.8-3.6c-0.1,2.1-0.7,3.9-1.6,5.7c-4.2,8-7.5,16.3-10,24.9
		c-1.1,3.8-2.8,6.5-6.6,8c-2.6-0.4-4.1,0.5-8-1.2c-3.5-2.8-3.2-5.4,1.3-7.5c4.8-2.3,6.5-6,7.9-10.7c1.5-4.8,1.9-9.7,3.2-14.6
		c0.8-3.1,0.9-6.9-2.3-9C7.9,81.9,1.6,73,0.7,66.6c-1-6.3-0.8-18.6,0-23c1.2-6.5,5.1-14.9,5.2-22.4C6,13.8,5.5,6.7,9.5,0
		c2.7,3.8,5.4,7.5,8.2,11.3c1,1.3,1.9,2.5,3.9,2.8c5.9,0.7,11.2,3.5,18-1.5l3.5-1.4c8.1-2.3,6.6-3.8,4.1,5.2
		c-1.9,7-6.6,13.1-5.2,20.8c0.1,0.7-0.4,1.6-0.6,2.4c-2.1,5.5-0.6,7.6,5.3,6.4c5-1,9.9-0.2,14.8-0.1c6.8,0.1,13.4,3,20.6,0.6
		c4.6-1.5,10-0.5,14.2,2.8c2,1.6,4,1.5,6,0.4c4.9-2.8,10.2-2.5,15.6-2c15,1.4,29.1,6.8,43.8,9.4c10,1.7,19.6,3.5,28.3-3.7
		c1.4,6.2-0.8,9-3,12.2c-7.1,10.3-16.8,16.1-29.2,17.7c-16.3,2.2-30.4-4.6-44.7-10.6c-1.1-0.5-2-2.2-3.4-1.2c-1,0.7-0.6,2.2-0.6,3.3
		c0,10.5,3.8,18.8,13.7,23.5c2.4,1.2,4.2,2.9,4.2,5.7c0,4.8,1.8,9.1,3.3,13.5C132.3,123.6,131.9,126.8,123.4,130z"/>
</g>
</svg>
