<?xml version="1.0" encoding="utf-8"?>
<!-- Generator: Adobe Illustrator 19.0.0, SVG Export Plug-In . SVG Version: 6.00 Build 0)  -->
<svg version="1.1"
	 id="svg2" xmlns:dc="http://purl.org/dc/elements/1.1/" xmlns:cc="http://creativecommons.org/ns#" xmlns:rdf="http://www.w3.org/1999/02/22-rdf-syntax-ns#" xmlns:svg="http://www.w3.org/2000/svg"
	 xmlns="http://www.w3.org/2000/svg" xmlns:xlink="http://www.w3.org/1999/xlink" x="0px" y="0px"
	 viewBox="453 -115.2 1122.5 340.2" style="enable-background:new 453 -115.2 1122.5 340.2;" xml:space="preserve">
<style type="text/css">
	.st0{clip-path:url(#SVGID_2_);}
	.st1{fill:#37B34A;}
	.st2{fill:#FFFFFF;}
	.st3{clip-path:url(#SVGID_4_);}
</style>
<g id="g10" transform="matrix(1.3333333,0,0,-1.3333333,0,340.16)">
	<g id="g12">
		<g>
			<g>
				<defs>
					<rect id="SVGID_1_" x="258.7" y="12.9" width="410" height="402.1"/>
				</defs>
				<clipPath id="SVGID_2_">
					<use xlink:href="#SVGID_1_"  style="overflow:visible;"/>
				</clipPath>
				<g id="g14" class="st0">
					<g id="g20" transform="translate(88.728,47.0557)">
						<path id="path22" class="st1" d="M339.5,86.8c-12.3-9.4-21.3-15.5-31.1-23c3.9,11.3,4.2,11.7,7.8,22.4
							C322.5,84.7,333.2,84.6,339.5,86.8"/>
					</g>
					<g id="g28" transform="translate(124.6953,72.334)">
						<path id="path30" class="st1" d="M339.5,86.8c-10.4-5.8-19-12.3-29.2-19.4c-3.1,14.2-4.9,25.1-2.9,39.2
							c1,6.9,1.6,11.5,3.2,18.5c2.3,9.8,9.5,11.2,9.4,21.1c-0.1,7.5,3.7,15-0.8,24c-3.2,1-2.6-1.8-4.8-1.8
							c8.9,24.7,16.8,50.4,24.7,76c6.1-16.6,10.6-33.5,15.9-50.9c-2.6,0.4-3-0.8-5.1-0.9c-2.4-1.8-4.5-4-4.8-7.8
							c-6.5-0.8-10.5-4.9-9.1-12.1c-6-11.9,0.6-19.8,4.2-26.6c12.9-15.7,19.6-40.7,16.3-70.6C348.5,80.9,347.3,82.4,339.5,86.8"/>
					</g>
					<g id="g32" transform="translate(44.9727,148.4932)">
						<path id="path34" class="st1" d="M339.5,86.8c-0.7-7.4-0.6-14.3,2.6-19.8c-10.8,8.1-18.2,13.1-28.5,21.7
							c14.1,0,24.2-0.3,38.2-0.3c0-2.8,0.7-4.7,0.7-5.9C345.8,82.3,345.7,86.6,339.5,86.8"/>
					</g>
					<g id="g36" transform="translate(198.5557,151.4536)">
						<path id="path38" class="st1" d="M339.5,86.8h35c-13.8-10.2-30.4-23.9-43.4-30.8C334.1,65.8,342.6,72.6,339.5,86.8"/>
					</g>
					<g id="g40" transform="translate(195.5371,141.7993)">
						<path id="path42" class="st2" d="M339.5,86.8c0.1-6.5-6.9-8.2-6.6-16.9c-11.7-15.8-6.5-53.7-1.8-73c-8.7-6.3-32-5.6-41.6-0.6
							c2.7,18.3,1.4,41.2-3,56.1c3.3-0.2,4.7-0.8,7.2,0.6c-12.8,3.3-14.5,17.7-21.1,27.2c6.5,8.1,20.2,7.1,27.2,0
							c0.8-6.1-1.9-15.6,2.4-18.1c-1.8,9.8,8.1,36.8,18.7,35.6c5.1-0.6,4.1-8.9,11.5-8.4c-0.7,6.7-11.7,8.3-10.9,18.7
							c0.1,3,7.3,1.7,4.8,5.4c-5.6-0.8-26.7-6.3-27.2,4.8c16.3-3,1.6,2.2,27.3,6.7C328.6,123.9,339.3,103.2,339.5,86.8"/>
					</g>
					<g id="g44" transform="translate(184.0742,46.4531)">
						<path id="path46" class="st1" d="M339.5,86.8c3.5-8.8,6.1-15,8.4-22.9c-8.5,4.8-18.4,13.4-27.8,19.3
							C326.8,84.2,334.2,84.4,339.5,86.8"/>
					</g>
					<g id="g48" transform="translate(161.1392,179.8135)">
						<path id="path50" class="st2" d="M339.5,86.8c-3.3,7.1,16.2,14.4,15.1,3C349.7,88.6,345.7,86.5,339.5,86.8"/>
					</g>
					<g id="g52" transform="translate(173.8125,163.5239)">
						<path id="path54" class="st2" d="M339.5,86.8c0.3-2.5,0-5.6,1.8-6.6c-1.3-2-3.9-2.5-7.2-2.4c-0.9,3.3-3,5.5-3.6,9.1
							L339.5,86.8L339.5,86.8z"/>
					</g>
					<g id="g56" transform="translate(156.915,177.4023)">
						<path id="path58" class="st2" d="M339.5,86.8c2,1.5,4.8-0.1,7.2,0c-0.6-0.8-0.6-2.2-1.2-3C342.5,83.8,339.7,84,339.5,86.8"/>
					</g>
					<g id="g60" transform="translate(163.5557,148.4346)">
						<path id="path62" class="st2" d="M339.5,86.8c1.9-2.4-4.6-6.5-5.4-10.3c-3.4,1-5.1,3.8-9.1,4.2
							C326.3,87.4,336.2,81.9,339.5,86.8"/>
					</g>
					<g id="g64" transform="translate(162.9526,163.5239)">
						<path id="path66" class="st2" d="M339.5,86.8c3-7.9,0.3-16.5-6-15.7c-8.6,1-7.6,24-11.5,27.8c1.7,3.9,8.9,10.4,12.7,4.8
							c-2,1.1-2.7-0.8-4.8-1.2C326.2,94.1,331.3,87.1,339.5,86.8"/>
					</g>
					<g id="g68" transform="translate(143.6392,167.1406)">
						<path id="path70" class="st2" d="M339.5,86.8c3.8-4.9,5.6-11.7,6.6-19.3C333.5,55,334.7,81.9,328,86.8
							C327.7,97.5,343.4,96.1,339.5,86.8"/>
					</g>
					<g id="g72" transform="translate(129.1577,166.5376)">
						<path id="path74" class="st2" d="M339.5,86.8c2.7-5.2,10.4-15.4,9.1-21.1c-2.5-10.8-13.1,5.7-13.9,10.3
							c0.2,0.8,1.5,0.5,2.4,0.6c-0.4,2.4-2.6,3-2.4,6C335.1,85.1,336.9,86.3,339.5,86.8"/>
					</g>
					<g id="g76" transform="translate(129.1577,140.5889)">
						<path id="path78" class="st2" d="M339.5,86.8c-0.7-0.9-2.3-0.9-3-1.8c-3,1.3-2.6,5.8-4.8,7.8C334.5,95.5,338,89.4,339.5,86.8"
							/>
					</g>
					<g id="g80" transform="translate(124.3306,153.2617)">
						<path id="path82" class="st2" d="M339.5,86.8c0.2-1.4,1-2.3,0.6-4.2c-1.5-0.2-1.3,1.1-3,0.6C337.6,84.6,337.2,87,339.5,86.8"
							/>
					</g>
					<g id="g84" transform="translate(102.6064,149.6401)">
						<path id="path86" class="st2" d="M339.5,86.8c1.3-6.7,0.1-20.5-5.4-20.5C325.8,66.2,331.3,87.2,339.5,86.8"/>
					</g>
					<g id="g88" transform="translate(86.9146,114.0371)">
						<path id="path90" class="st2" d="M339.5,86.8c8.2,9-3.3,14.8-3.6,24.1c-13,12.4-22.2-11.6-19.3-24.1
							C324.9,84.6,331,82.7,339.5,86.8 M346.7,98.2c3.4-0.8,6,2.4,7.2,1.8c-13.8-15.5-15.9-49.8-10.3-76c-7.8-2.9-18.7-3-26.6,0
							c2.3,20.2,1.5,43-5.4,57.3c1.5-0.1,1.9-1.2,2.4,0.6c-3.4,4.8-6.3,10.2-9.7,15.1c2.5,0,2.9-2,6-1.2c6.2,2.1,5.2,11.8,1.8,16.3
							c0.5,1.7,2.2,2.2,2.4,4.2c4.6-4.3,12.7-0.5,13.3,4.8c2-7.8,11.8-5.4,14.5,0c-0.6-3.6,0.4-5.6,2.4-6.6
							C341.9,110.3,342.4,100.4,346.7,98.2"/>
					</g>
					<g id="g92" transform="translate(91.7417,151.4536)">
						<path id="path94" class="st1" d="M339.5,86.8h6c-1.1-2.1-2.3-4.1-4.8-4.8C341.1,84.4,338.7,84,339.5,86.8"/>
					</g>
					<g id="g100" transform="translate(86.3115,168.9536)">
						<path id="path102" class="st2" d="M339.5,86.8c4.6-5.4,2.2-23.2-4.2-22.9C327.5,64.2,332.3,85.1,339.5,86.8"/>
					</g>
					<g id="g104" transform="translate(79.6763,137.5752)">
						<path id="path106" class="st2" d="M339.5,86.8c0.2-8.1,12.2-14.1,4.8-20.5c-1.8,0-2.3,1.3-3.6,1.8c-2.1-1.3-1.1-5.8-4.8-5.4
							c-0.8,1.2-1.2,2.9-1.8,4.2c-2.1-0.1-3.2-1.2-4.8-1.8c-1.7,1.2-3.1,2.6-4.2,4.2C329.6,74.8,329,92.8,339.5,86.8"/>
					</g>
					<g id="g108" transform="translate(60.9658,165.332)">
						<path id="path110" class="st2" d="M339.5,86.8c6.9-2.6,10.7-8.2,11.5-16.9C343.6,59.1,333.5,79,339.5,86.8"/>
					</g>
					<g id="g112" transform="translate(48.2974,143.6079)">
						<path id="path114" class="st2" d="M339.5,86.8c8.4-0.1,13.8-10.7,9.7-17.5C340,69,338,80.3,339.5,86.8"/>
					</g>
				</g>
			</g>
		</g>
	</g>
	<g id="g116">
		<g>
			<g>
				<defs>
					<rect id="SVGID_3_" x="27.8" y="12.9" width="1465.9" height="402.1"/>
				</defs>
				<clipPath id="SVGID_4_">
					<use xlink:href="#SVGID_3_"  style="overflow:visible;"/>
				</clipPath>
				<g id="g118" class="st3">
					<g id="g124" transform="translate(575.2773,97.7871)">
						<path id="path126" class="st2" d="M339.5,86.8c0,7.9-2.4,14.3-7.1,19.1c-4.7,4.8-10.8,7.2-18.4,7.2c-7.1,0-13-2.4-17.7-7.2
							c-4.7-4.8-7.1-10.9-7.1-18.2c0-7.1,2.4-13,7.1-17.8c4.7-4.7,10.8-7.1,18.3-7.1c4.8,0,9,0.9,12.5,2.6c3.5,1.7,6.5,4.4,9.1,7.9
							L326.1,78c-3.2-3.1-7.1-4.7-11.6-4.7c-3.8,0-6.8,1-9.3,3c-2.4,2-3.9,4.7-4.5,8.1h38.5L339.5,86.8z M301.4,93.9
							c1.4,3,2.8,5,4.4,6.2c2.5,1.9,5.5,2.8,8.8,2.8c3.1,0,5.8-0.8,8.1-2.5c2.3-1.7,3.9-3.8,4.7-6.5H301.4z M342.9,64h12v66.3h-12
							V64z M394.3,106.6c-2.1,2.2-4.5,3.8-7,4.9c-2.5,1.1-5.2,1.6-8.1,1.6c-6.2,0-11.5-2.4-15.9-7.1s-6.5-10.8-6.5-18.1
							c0-7.1,2.3-13.1,6.8-17.9c4.5-4.8,9.8-7.2,16-7.2c2.8,0,5.3,0.5,7.7,1.5c2.4,1,4.7,2.6,7,4.8V64h12v47.8h-12V106.6z
							 M391.1,98.2c2.5-2.6,3.7-5.9,3.7-10.1s-1.2-7.7-3.7-10.3c-2.5-2.6-5.6-3.9-9.4-3.9c-3.7,0-6.7,1.3-9.2,4s-3.7,6.1-3.7,10.2
							s1.2,7.5,3.7,10.1s5.5,3.9,9.2,3.9C385.5,102,388.6,100.7,391.1,98.2 M368.3,131.3c-1.2-1.2-1.8-2.7-1.8-4.4
							c0-1.8,0.6-3.3,1.8-4.5c1.2-1.2,2.7-1.8,4.4-1.8c1.8,0,3.3,0.6,4.5,1.8c1.2,1.2,1.8,2.7,1.8,4.5c0,1.7-0.6,3.2-1.8,4.4
							c-1.2,1.2-2.7,1.8-4.5,1.8C371,133.2,369.5,132.6,368.3,131.3 M387.8,131.3c-1.2-1.2-1.8-2.7-1.8-4.4c0-1.8,0.6-3.3,1.8-4.5
							c1.2-1.2,2.7-1.8,4.4-1.8c1.8,0,3.3,0.6,4.5,1.8c1.2,1.2,1.8,2.7,1.8,4.5c0,1.7-0.6,3.2-1.8,4.4c-1.2,1.2-2.7,1.8-4.5,1.8
							C390.5,133.2,389,132.6,387.8,131.3 M410.9,129.3c-1.5-1.5-2.2-3.3-2.2-5.4c0-2.2,0.8-4.1,2.3-5.6s3.3-2.3,5.5-2.3
							c2.1,0,3.9,0.8,5.3,2.3c1.5,1.5,2.2,3.3,2.2,5.5s-0.8,4-2.3,5.5c-1.5,1.5-3.3,2.3-5.4,2.3S412.4,130.8,410.9,129.3 M410.3,64
							h12v47.8h-12V64z M426.4,64h12v21.3c0,4.6,0.4,8,1.2,10.1c0.8,2.1,2,3.8,3.7,5c1.6,1.2,3.4,1.8,5.4,1.8c1.8,0,3.3-0.5,4.6-1.4
							c1.3-0.9,2.2-2.4,2.8-4.3c0.6-1.9,0.9-5,0.9-9.3V64h12.1v21.6c0,4.6,0.4,7.9,1.2,10c0.8,2.1,2,3.7,3.6,4.9
							c1.6,1.2,3.5,1.8,5.5,1.8c2.7,0,4.7-1,6.1-2.9c1.3-1.9,2-5.6,2-11V64h12.2v28c0,5.7-0.6,9.9-1.7,12.4s-3,4.6-5.6,6.2
							c-2.6,1.6-5.6,2.4-9,2.4c-3.3,0-6.3-0.7-9.1-2.2c-2.8-1.5-5.1-3.6-7-6.4c-1.5,2.8-3.4,5-5.8,6.4c-2.4,1.5-5.1,2.2-8.1,2.2
							s-5.7-0.6-8.2-1.7c-2.5-1.1-4.8-2.8-6.8-5.1v5.5h-12L426.4,64L426.4,64z M503.6,129.3c-1.5-1.5-2.2-3.3-2.2-5.4
							c0-2.2,0.8-4.1,2.3-5.6s3.3-2.3,5.5-2.3c2.1,0,3.9,0.8,5.3,2.3c1.5,1.5,2.2,3.3,2.2,5.5s-0.8,4-2.3,5.5
							c-1.5,1.5-3.3,2.3-5.4,2.3S505.1,130.8,503.6,129.3 M503,64h12v47.8h-12V64z M517.8,64h12v66.3h-12V64z M532.7,64h12v66.3h-12
							V64z M596.8,86.8c0,7.9-2.4,14.3-7.1,19.1c-4.7,4.8-10.8,7.2-18.4,7.2c-7.1,0-13-2.4-17.7-7.2c-4.7-4.8-7.1-10.9-7.1-18.2
							c0-7.1,2.4-13,7.1-17.8c4.7-4.7,10.8-7.1,18.3-7.1c4.8,0,9,0.9,12.5,2.6c3.5,1.7,6.5,4.4,9.1,7.9L583.4,78
							c-3.2-3.1-7.1-4.7-11.6-4.7c-3.8,0-6.8,1-9.2,3s-3.9,4.7-4.5,8.1h38.6L596.8,86.8z M558.7,93.9c1.3,3,2.8,5,4.4,6.2
							c2.5,1.9,5.5,2.8,8.8,2.8c3.1,0,5.8-0.8,8.1-2.5s3.9-3.8,4.7-6.5H558.7z"/>
					</g>
					<g id="g128" transform="translate(238.7563,87.957)">
						<path id="path130" class="st2" d="M339.5,86.8c-1.2-0.7-2.6-1.1-4.1-1.1c-3.5,0-5.1,1-4.7,3c0.1,0.5,0.6,1.6,1.7,3.5
							c1.2,2,1.9,3.4,2.2,4.1c2.9,7.5,4.6,12.8,5.1,15.7c0.3,2.1,0.1,4-0.6,5.5c-0.9,1.7-2.3,2.5-4.2,2.5c-0.5,0-1.5-0.4-3.1-1.2
							c-1.6-0.8-2.6-1.2-3.1-1.2c-0.4,0-0.7,0-0.8,0.1c-0.1,0.1-0.2,0.1-0.1,0.2c0,0,0.1,0,0.1,0.1c0.9,0.8,1.3,1.3,1.3,1.4h-3.1
							c-1.2,0-3.5-0.8-6.9-2.7c-3.4-1.8-5.3-3.1-5.7-3.8c0.6-1,0.9-1.7,1-2.3c-2.5-2-4.4-3.4-5.5-4.1c-0.3,0.4-0.3,1-0.2,1.8
							c-1.1-1-1.7-1.8-1.8-2.4h2l1.2,1.2c0.2-0.7,0.3-1.2,0.2-1.5c-0.1-0.3,0.1-0.4,0.5-0.5s0.7-0.2,0.8-0.4c0.1,0.4,0.5,1,1.3,1.8
							c0.4-0.3,0.7-0.6,1.1-0.8c0.5-0.4,0.6-1,0.6-1.6c-0.2-1-0.4-1.4-0.7-1.3c-1.5,0-2.5-0.3-3.2-0.9c0.3-0.3,0.3-0.6,0.2-1
							c-0.1-0.4-0.3-0.6-0.6-0.6c-0.7,2.2-1.2,3.4-1.6,3.5c0.4-0.4,0.7-0.7,0.7-1.1c0-0.3,0-0.6-0.1-0.9c-0.2-0.5-0.3-0.8-0.4-1
							c-0.3,0.4-0.4,0.8-0.3,1.3c-0.1-0.5-0.8-1.8-2.3-3.7c-0.3,0.4-0.4,0.9-0.3,1.5c-0.1-0.6-0.4-1-0.9-1.2
							c-0.3-0.3-0.5-0.8-0.6-1.4c-0.1-0.8-0.1-2,0-3.6s0.1-2.6,0.1-2.9c0.1,0.4,0.3,0.7,0.8,0.9c0.2-0.3,0.3-0.9,0.1-1.8l2.2,1.8
							c1-0.6,1.8-1.3,2.2-2.1c-1.4-1.5-2.3-2.8-2.9-3.9c1-0.6,2.3-1.3,3.7-2.4c-0.2-0.2-0.5-0.3-0.8-0.4s-0.6-0.2-0.8-0.5
							c-0.2,0.3-0.6,0.4-1,0.3c-0.7-0.1-0.8-0.2-0.2-0.2c0.3-0.5,0.1-1.1-0.8-1.9c-0.1,0.1-0.1,0.2-0.1,0.3c0,0.1,0.1,0.2,0.2,0.4
							c0.1,0.1,0.2,0.2,0.2,0.3s-0.2,0.2-0.6,0.2s-0.9-0.1-1.4-0.4c-0.5-0.3-0.8-0.4-0.9-0.4s-0.2,0.1-0.3,0.2l-0.4-2.4
							c0.3,0,0.8-0.2,1.4-0.6c0.3,1.7,0.7,2.5,1.2,2.5c-0.2-1.8-0.6-2.8-1-3.2c-0.7,0-1.4,0-2.3-0.1c-0.8-0.1-1.3-0.1-1.4-0.1
							c0.8-1,1.4-1.9,1.5-2.6c1.3-1.4,3-2,5.2-2h3.2c3.7,0,9.1,3.7,16.2,11.1c2.9-1.7,5.1-2.5,6.8-2.5c1.7,0,3.6,0.7,5.9,2
							c2.6,1.6,4.1,3.4,4.4,5.3c0.1,0.8,0,1.6-0.3,2.4C342.1,88.9,340.4,87.4,339.5,86.8 M304.1,91.7h-1l-0.4-2.3h1L304.1,91.7z
							 M303.6,102.2c-1-2-1.9-4.1-2.9-6.1c-0.8-1.8-1.4-3.9-1.7-6.2c-0.2-1.2-0.2-3.2,0.1-5.8c0.2-2.7,0.5-4.4,0.9-5.2L303.6,102.2z
							 M305.2,83.7h-1l-0.3-1.7h1L305.2,83.7z M326,96.8l-0.4,2.1l0.9,0.3l0.3-2.4H326z M328.7,112.7c-1.7-1.7-2.6-3.1-2.8-4.1
							c-0.1-0.4,0-0.8,0.1-1.1c-0.2-0.8-0.4-3.6-0.6-8.3c-0.6,0.8-1.1,2.1-1.6,3.7c-0.5-0.7-0.9-1.7-1.2-3.2c-0.3-1.6,0-2.4,0.9-2.4
							c0.6,0,0.9,0.1,0.8,0.2c-0.1,0.7-0.1,1-0.1,0.7c0-0.2,0-0.6,0.1-1.2s0.1-1,0.1-1.2c0.1,0.6-0.2,0.9-0.9,0.9
							c-0.3-0.3-0.5-0.7-0.6-1.3c-0.3-1.7,0.7-4.4,2.8-8.2c-1.1-2-2.7-3.7-4.8-5.2c-1.8-1.3-3.3-1.9-4.4-1.9c-2.2,0-3.6,1.5-4.3,4.4
							c-0.6,2.3-0.6,4.8-0.2,7.6c0.1,0.7,1.4,4.8,3.8,12.2c-0.4,0.4-0.8,0.7-1.2,0.7c0.4,0.3,2.5,2.5,6.1,6.5c2.9,3.2,5.2,4.7,7,4.7
							h4.2C331.9,116,330.8,114.9,328.7,112.7 M308.8,97.8l-0.4,0.7l1.6,1.4l0.5-0.6L308.8,97.8z M308.1,93.7l0.3,1.6h1l-0.3-1.6
							H308.1z M305.9,91.3l0.4,2.3h1l-0.4-2.3H305.9z M307.8,77.8l0.3,1.7h1l-0.3-1.7H307.8z M373.6,140.8c-1,1.7-2.3,2.5-3.7,2.5
							c-1.4,0-2.9-0.7-4.4-2.1c-1.5-1.4-2.3-2.9-2.6-4.4c-0.4-2.5,0.7-4.7,3.5-6.5h1.7c1.3,0,2.7,0.7,4.2,2.2s2.3,2.9,2.5,4.3
							C374.9,138,374.5,139.3,373.6,140.8 M359,83c-1.9,2.6-2.8,4.8-2.5,6.5c0.3,1.6,3.4,8.8,9.3,21.7c-0.3,0-0.6,0.1-0.9,0.4
							c1.2,0.7,2.1,1.9,2.7,3.7c0.9,2.9,1.7,4.9,2.3,6c-1.1-0.2-3.3-0.6-6.6-1.4c-2.7-0.6-4.3-0.9-4.8-0.9s-0.7-0.1-0.7-0.3
							c0-0.4-0.1-0.6-0.1-0.7s-0.1-0.1-0.1-0.1c-0.3,0.6-0.4,1-0.4,1.2c-0.2-1.4-0.7-2-1.3-2c0.3,0,0.6-0.2,0.7-0.6
							c-0.9-0.5-2.2-2.1-3.7-4.8c-1.3-2.4-2-3.8-2-4.2l-0.3-1.9c0.4,0,0.7-0.1,1-0.4c-3.4-3.4-5.8-9.6-7.3-18.6
							c-1.5-9.4,0.3-14.2,5.3-14.2c1.7,0,3.6,0.7,5.8,2c1.1,0.7,3.2,2.4,6.3,4.9c5.2,4.2,8,7.9,8.5,11.1c0.1,0.5,0.1,1,0.1,1.5
							C366.4,88.3,362.6,85.4,359,83 M364.1,111.4l-1.6,2.1c0.2,0,0.6-0.1,1.2-0.2c0.7-0.2,1.1-0.2,1.3-0.2
							C364.5,112.3,364.2,111.8,364.1,111.4 M360.8,115l-3.2,1.6l0.1,0.8l3.5-1.6L360.8,115z M402.3,78.7l-0.7-0.7l1.1-1.6l0.7,0.7
							L402.3,78.7z M400.4,75l-1.4-0.8l-0.1-0.9l1.7,0.8L400.4,75z M397.1,77.2h-0.9l0.5-1.9l0.9,0.4L397.1,77.2z M397.9,75.4
							l-1-1.6l0.7-0.4l1,1.7L397.9,75.4z M378,75.5l-2.5,0.8l-0.2-1.1l2.5-0.8L378,75.5z M418.9,89.9c-0.4,0-0.8,0.2-1.3,0.7
							c-0.7-1.2-2.5-3-5.5-5.5c-3.4-2.8-5.4-4.6-6.1-5.5l0.7-2.5c-0.4-0.4-0.7-0.5-0.8-0.4c-0.8,1.5-1.4,2.7-2,3.4
							c0.5,0.4,0.8,0.8,0.9,1.1c0,0.2-0.2,0.6-0.6,1.1c-0.5,0.5-0.7,1.1-0.7,1.8c0,0.2,0.2,2.5,0.7,6.8c0.3,2.8-0.1,4.4-1.1,4.9
							c-0.3-0.6-0.8-1.5-1.5-2.5c-0.7-1.1-1.2-1.9-1.5-2.5l-0.6,1.1c1.5,2.4,2.7,4.1,3.6,5.2c-2-0.2-3.4-0.4-4.1-0.6
							c1,2.2,1.9,3.3,2.6,3.3c3.5,0,4.9,0,4.2,0.1c0.2,0.7,0.7,1.7,1.6,3s1.7,2.2,2.4,2.7c-0.3-0.7-0.8-1.6-1.5-2.8
							c-0.6-1-0.9-1.5-0.9-1.7c2.4,0.8,4.5,2.1,6.4,4.1c2.1,2.1,3.3,4.3,3.7,6.6c0.4,2.5-0.2,4.7-1.9,6.7c-1.7,1.9-3.9,2.9-6.5,2.9
							c-1.8,0-4.4-0.5-7.9-1.4c3.3,4,6.6,8,9.9,12c3.3,4.2,5.3,8.5,6,12.9c0.2,1.3,0.3,2.7,0.2,4.2c-0.2,2.7-1,4-2.3,4
							c-0.7,0-3.3-0.8-7.6-2.3c-4.5-1.6-8.2-3-10.9-4.3c-0.9-0.4-1.8-1.4-2.8-3c-0.6-1.1-1.3-2.2-1.9-3.3
							c-4.2-6.9-7.1-11.8-8.6-14.7c-5.7-10.4-8.9-18.8-9.7-25.1c1.2-0.7,1.9-1.5,2.1-2.4l-0.5-2.9c-0.7-0.5-1.1-0.6-1.3-0.4
							c0.4-0.2,1-0.3,1.8-0.2c1.3,0.2,2,0.3,2.3,0.3c-1.2-1.2-2.2-1.8-3.1-1.8c1.7,0.5,2.8,0.8,3.3,0.9c0.3-2.4,0.4-4.1,0.2-5.1
							c-0.8,1.7-1.3,3-1.5,3.8l-1.7-1.7c0.3,0,0.6-0.2,1-0.6s0.5-0.7,0.5-1l-2.5-0.6c0.2,0.3,0.3,0.6,0.3,0.9c0.2,1-0.2,2-1,3
							c-0.8,0.9-1.2,1.4-1.3,1.3c0.3,1.9,0.9,3.6,1.8,5c-0.4-0.6-1.1-1.9-2.1-4c-1.2-2.5-1.9-4.3-2.1-5.1c-0.1-0.6,0-1.2,0.1-1.9
							c0.2-0.7,0.2-1.2,0.2-1.3c0.1,0.3,0.8,0.9,2.4,1.7c-0.2-1.4-0.5-2.2-0.9-2.6c-1.6,0.1-2.4-0.3-2.6-1.2
							c0.4,0.1,1.2,0.5,2.5,1.2c0.9,0.5,1.6,0.7,2.2,0.7c0.9,0,1.6-1.2,2.3-3.5c-0.4-0.4-0.7-0.5-0.8-0.4c-0.5,1.7-1,2.5-1.6,2.5
							c-1.2-1.7-2.1-3-2.7-3.8c-0.5,1.6-1.2,2.4-2.1,2.4l-0.6-3.7c0.6,0,1.3,0.4,2.1,1.2c0.6-0.8,0.9-1.5,0.8-1.9c0,0.2,0,0.4,0,0.6
							c0.1,0.7,0.5,1.5,1.1,2.4c0.5,0.7,1,1.4,1.4,2.1c0.2-0.2,0.3-0.5,0.3-0.8c0-0.4,0.1-0.6,0.3-0.8c-0.1-0.2-0.6-1.1-1.4-2.8
							c-0.5-1-1.2-1.9-2-2.6c-0.6,0.4-1.1,0.7-1.4,0.7c0.1-0.3,0.4-0.7,1.1-1.1c-1.6-1.4-2.4-2.7-2.6-3.8c0.1,0.4,0.3,0.7,0.8,1
							c0.6-0.4,1.5-0.7,2.7-0.7c1.8,0,4.4,0.5,7.7,1.4l0.3,2.1c-0.2-0.7-0.6-1.2-1-1.6c-0.1,0.2-0.2,0.6-0.2,1.2s-0.1,0.9-0.3,1.1
							c0.3,0.4,0.7,0.9,1.3,1.6c0.5,0.5,0.7,0.9,0.8,1.1c-0.8,0.1-1.1,0.4-1.1,0.8c0,0.1,0.1,0.4,0.3,0.6c0.2,0.3,0.3,0.4,0.3,0.5
							l0.9,0.4c-0.6,0.6-1.1,1.1-1.5,1.3c1.1,0.6,1.7,1.2,1.8,1.8c0.1,0.3-0.1,0.8-0.4,1.5s-0.4,1.2-0.4,1.5
							c-0.1-0.4-0.3-0.8-0.8-1.3c-0.2,0.2-0.2,0.6-0.1,1.4c2.6,1.3,4.2,4.2,4.9,8.6c0.3,1.7,0.3,3.1,0.1,4.3
							c0.3,0.4,0.6,0.3,0.9-0.2c1.3,2.4,3.4,4.9,6.3,7.6c3.1,2.9,5.4,4.4,7.1,4.6c0.1,0.1,0.2,0.4,0.2,0.8c0,0.2,0.3,0.3,0.9,0.3
							c0.3,0,0.5-0.1,0.5-0.2s-0.1-0.2-0.3-0.4c-0.2-0.2-0.3-0.3-0.3-0.4s0.1-0.2,0.4-0.2l1.3,0.6c1.2,0,2.3-0.5,3.1-1.6
							c0.8-1.1,1.1-2.3,0.9-3.7c-0.3-1.9-1.5-3.8-3.5-5.6c-2.1-2-4.3-3-6.5-3c-2.4,0-4.3-0.5-5.9-1.4l-0.4-2.2
							c0.6-0.7,1.3-1.1,2.2-1.2c0.8-0.1,1.5-0.1,2.2-0.2l0.9-1.1c-0.8-2.2-1.3-3.8-1.5-4.7c0.8,1.4,1.6,2.2,2.4,2.6c0-1,0-1.6,0-1.6
							c0.4-0.2,0.8-0.5,1.2-0.7c-1-0.9-1.7-1.1-2.1-0.6c0.2-0.2,0.4-0.5,0.6-0.9s0.4-0.7,0.6-1l-0.9-1c0.1,0.3-0.6,0.5-2,0.5
							c0.5-0.7,0.4-1.3-0.1-1.8c-0.8,0-1.5-1.2-1.8-3.7c1.4,0,2.3-0.5,2.6-1.5c-1.2-0.2-2.1,0-2.7,0.7c1-2.3,1.6-4,1.7-5
							c0,0.1,0.7,0.7,2,1.9l0.7-1.1l-0.3-1.6c-0.7,0-1.1-0.2-1.2-0.4c-0.1-0.3,0.5-0.8,1.6-1.3s2-0.8,2.5-0.8c0.4,0,1.1,0.1,2,0.4
							s1.5,0.4,1.9,0.4c0.3,0,0.5-0.1,0.7-0.2c0.1,0.9,0.4,1.5,0.7,1.9c0-0.1,0.1-0.2,0.1-0.4c0-0.1-0.1-0.2-0.2-0.4
							c-0.1-0.2-0.2-0.3-0.2-0.3c0-0.1,0.2-0.2,0.6-0.2c0.2,0,1.9,1.2,5,3.6c3.3,2.5,5.1,3.9,5.5,4.1l4.8,4.6L418.9,89.9z
							 M371.1,92.1l-0.1-0.9l1.7-0.8l0.5,0.9L371.1,92.1z M390.5,113.6c4.2,9.9,7.1,16.3,8.5,19.2c4.7,9.2,8.6,13.8,11.6,13.8
							c0.8,0,1.3-0.5,1.7-1.4c0.3-0.8,0.4-1.6,0.3-2.4C411.8,138.3,404.5,128.6,390.5,113.6 M412.4,107.6l-0.2,0.9l3.5,2.1l0.2-0.9
							L412.4,107.6z M410.5,105.7l-0.4,0.7l1.6,1.5l0.5-0.6L410.5,105.7z M399.4,115.4l-0.7,0.4l1.3,2.3l0.8-0.3L399.4,115.4z
							 M380.3,109.4c0,0.2,0,0.6-0.2,1.1s-0.3,0.8-0.2,1h2.2C381.1,111.2,380.5,110.5,380.3,109.4 M399.3,89.4
							c-0.2-0.4-0.6-1.1-1.3-2.3c-0.5-0.8-0.7-1.5-0.8-2.1c-0.1-0.4-0.2-0.8-0.3-1c0,0,0.1-0.1,0.3-0.3c0.4,0.4,0.6,0.8,0.7,1.2
							c0.1-0.1,0.1-0.5,0-1.2c-0.1-0.5,0.1-0.7,0.7-0.7c0.5,0,0.9,0.2,1.2,0.6c0.3,0.4,0.4,0.6,0.5,0.6l1-1.8c-0.6,0-1,0.1-1.3,0.5
							c-1.2-1.1-1.8-2.1-2-3.1c-0.1,0-0.4,0.1-0.9,0.3s-1,0.3-1.5,0.3c-0.4,0-0.6,0.2-0.8,0.6c0,0-0.1,0.1-0.2,0.1
							c-0.2-0.2-0.4-0.7-0.5-1.3c-0.1-0.6-0.3-1.1-0.5-1.2c-0.4,0.4-0.5,1.2-0.3,2.3c0.1,0.8,0,1.2-0.3,1.2c-0.2,0-0.4-0.1-0.7-0.2
							c0.3,0.8,0.6,1.4,1,1.8c0.1-0.1,0.4-0.3,1.1-0.7c0.5-0.3,0.8-0.7,0.9-1.2c0.9,1.5,1.8,4.3,2.9,8.3c-0.3-0.3-0.5-0.7-0.6-1.3
							c0.2,0.9-0.1,1.7-1.1,2.4h1.9c0.6,0.1,1.1-0.2,1.5-0.7c0.4-0.6,0.7-1.1,1.1-1.7c0.3,0.2,0.6,0.2,0.9,0.1
							c0.4-0.3,0.7-0.4,0.8-0.4C400.9,88.4,399.8,88.7,399.3,89.4 M391.9,87.2l0.2,1.1h1.5l-0.2-1.1H391.9z M400.7,75.3l-0.9,2.8
							h0.8l0.9-2.4L400.7,75.3z M398.4,75.5l-0.6,4l0.9,0.4l0.6-4.4H398.4z M381.9,96.8l-0.7,0.6l1.7,2.3l0.7-0.6L381.9,96.8z
							 M379.9,99.7l0.3,1.7h1l-0.3-1.7H379.9z M377.8,99.7c-0.6-0.4-0.9-0.8-0.9-1.1c0.1,0.7,0,1.5-0.3,2.3s-0.8,1.2-1.5,1.2
							c-0.5,0-1-0.1-1.3-0.2s-0.6-0.2-0.7-0.2c0.6,0.7,0.9,1.3,0.9,1.7c2.7-1.1,4.4-2.1,5.1-2.9C378.8,100.4,378.4,100.2,377.8,99.7
							 M378.2,95.8l0.3,1.7h1l-0.3-1.7H378.2z M375.4,95l-0.7,0.6l1.7,2.2l0.7-0.6L375.4,95z M379,90.1l0.4,2.4h1l-0.4-2.4H379z
							 M374.9,87.3l0.1,0.9l1.5,0.8l0.2-0.9L374.9,87.3z M377.1,84.4l-0.5,1.5l0.9,0.4l0.4-1.9H377.1z M445.2,81.6
							c-0.3,0.4-0.4,0.8-0.3,1.2l-1.4-1.2c-0.2,0.1-0.3,0.2-0.5,0.2s-0.8-0.4-1.7-1.3c-0.1,0.5-0.8,1-2.3,1.3
							c-0.9,0.2-1.9,0.4-2.8,0.6c-1,0.3-2.2,1.5-3.4,3.7c-1.4,2.4-2,4.5-1.7,6.4c0.2,1.2,0.6,2.1,1.2,2.7c0.3-1.2,0.8-1.8,1.4-1.8
							c1.7,0.5,2.7,2.2,3,5.3c-0.2-0.2-0.4-0.6-0.5-1.1c-0.1-0.6-0.3-1-0.5-1.2c-0.6,0.8-1.1,1.2-1.7,1.2c-0.3,0-0.5-0.1-0.5-0.3
							c0-0.1,0-0.2,0-0.3c0-0.1,0.1-0.3,0-0.3c0-0.2-0.2-0.3-0.5-0.3c-0.5,0-0.9,0.1-1,0.3c-0.1,0.2-0.2,0.4-0.3,0.7l0.5,3.4
							c-0.4-1.1-0.8-1.8-1-2c-1.5,0.3-2.6,0.4-3.4,0.3c0.5,0.6,0.9,1.4,1.4,2.5c0.4,1.1,0.9,1.9,1.3,2.4l0.7-0.9
							c-0.6-1-0.9-2.1-0.8-3.2c1,2.7,1.9,5.2,2.9,7.6l0.7-0.8c-0.3,0-0.5-0.3-0.4-1c0.5,2,1.9,4.4,4.3,7.2c2.5,3.1,4.8,4.6,6.7,4.6
							c1.3,0,2.2-1,2.7-2.9c0.3-1.4,0.4-2.7,0.2-3.9c-0.3-1.9-1.7-4.3-4-7.1c-2.2-2.6-4.1-4.3-5.8-5.1l-0.5-3.3
							c6.8,3.2,11.2,5.4,13,6.7c3.8,2.7,6,6,6.7,10c1,6.5-1.9,9.7-8.6,9.7c-3.8,0-7.7-1.3-11.9-4c-4.4-2.8-8.2-6.7-11.2-11.5
							c-0.7-2.2-1.1-4-1.2-5.3c-0.4-0.6-0.8-1-1.1-1.3c0.6-0.6,0.7-2.2,0.4-4.8c-0.4-3.2-0.5-5.2-0.3-6h-0.4c-0.5,1-0.6,2.1-0.4,3.4
							c-0.4,0.1-0.8-0.1-1.3-0.7c-0.4-0.4-0.7-0.8-1.1-1.2c-0.1-0.6-0.2-1.2-0.3-1.8c-0.8-4.8,0-8.7,2.2-11.5
							c2.3-2.8,5.7-4.2,10.3-4.2c3.2,0,6.9,0.8,11.1,2.5c0.2,1.1,0.3,2.4,0.3,3.7c0,0.8,0.1,1.3,0.3,1.5c0.6-0.7,1-1.1,1.2-1.1
							c-0.1-0.4-0.2-1-0.5-1.7s-0.4-1.1-0.4-1.2c7.4,4.2,11.1,7.5,11,10c0.6,0,0.8-0.4,0.7-1.3l1.6,5.9
							C450,86,446.1,82.8,445.2,81.6 M421.5,99.7l-2.1-6h0.8l2.1,6H421.5z M446,102.6l-0.4,0.6l1.5,1.4l0.5-0.6L446,102.6z
							 M434.2,108l-0.7,0.3l0.9,1.5l0.7-0.3L434.2,108z M440.7,98.8l-0.4,1.4l0.8,0.3l0.4-1.7L440.7,98.8L440.7,98.8z M431.6,106.4
							l0.3,2.2h0.9l-0.3-2.2H431.6z M425.2,99.3l0.2,3.3h1l-0.3-3.3H425.2z M440.8,76.4l0.3,2.2h0.9l-0.3-2.2H440.8z M424.8,96.7
							l-0.4,0.7l1.5,1.4l0.5-0.6L424.8,96.7z M435.3,78.2l-0.4,1.4l0.8,0.3l0.4-1.7L435.3,78.2L435.3,78.2z M429.4,92.3
							c-1-2.5-1.7-4.5-1.9-5.8c-0.2-1-0.2-1.9,0-2.7c-1.9-3.2-3.1-5.5-3.6-6.9c1.5,5.7,2.8,10.1,3.9,13.2c0,0.7-0.3,1-0.9,1L428,98
							h2.1c-1.1-1.1-1.8-2.7-2.1-4.6c-0.1-0.8-0.1-1.4,0.2-1.7c0.9,2.5,2,4.7,3.3,6.5C431.1,96.9,430.5,95,429.4,92.3 M425.5,85.8
							h-0.9l1.1,3.3h1L425.5,85.8z M456.1,79.6H455l-0.3-1.8h1.1L456.1,79.6z M491,96.9l-1.5-0.8l-0.1-0.9l1.9,0.8L491,96.9z
							 M503.6,86.1c-2.3-2-4.4-3-6.2-3c-2.4,0-3.3,1.8-2.7,5.5c0.3,2.1,4.8,12.9,13.4,32.3c-6.2-1.1-10.9-2-13.8-2.8
							c-3.6-7.7-5.5-12.1-5.8-13.3c2.3,0,3.8-0.4,4.5-1.1c-2.4-1.5-4.3-2.7-5.6-3.7c-0.3,0.8-0.5,1.3-0.5,1.6
							c-1-2.2-1.9-4.4-2.8-6.7c-1.2-2.6-2.4-4.7-3.7-6.1c-1.2-1.5-3-3.1-5.2-4.8c-2.5-2-4.2-3-5.1-3c-0.3,0-0.8,0.1-1.4,0.3
							c-0.3,0.1-0.6,0-0.8-0.3c-0.4,2.7-1,4.3-2,5c0.7,0.7,1.2,1.4,1.3,2.2c-1.4-1.5-2.6-2.6-3.5-3.3c-1,0.7-1.8,1.1-2.4,1.3
							l-0.7-4.4c1.2-0.6,2.1-1,2.7-1.2c-1.3-1.2-2.3-1.9-3.1-2.3c-0.6,0.8-0.9,1.5-0.8,2c-1.2-2.4-1.8-3.7-1.8-3.9
							c0,0-0.1,0.2-0.2,0.6c0,0.1,0.3,0.1,0.9,0.1c1,0,1.8-0.6,2.4-1.7c-0.8-0.8-1.5-0.8-2.1,0c0.2-0.3,0.2-0.6-0.1-1.1
							c-0.3-0.7-0.5-1-0.5-1.1c0.5,0.2,0.9,0.4,1.4,0.5c0.9,0.3,1.6,0.4,2.2,0.3c-0.9-0.8-1.3-1.3-1.3-1.4c0.7,0.1,1.4,0.2,2.1,0.2
							c0.7,0.1,1.2,0.7,1.5,1.7c0.5-0.7,0.5-1.3,0-1.8c3.8,1.3,6,2.2,6.8,2.7c1.5,1,3.8,2.9,7,5.8c2.7,2.5,4.2,3.8,4.5,3.8
							s0.4-1.1,0.3-3.2c-0.1-2.7,0.1-4.6,0.7-6c0.9-2.1,2.8-3.2,5.6-3.2c2.7,0,6.9,2.1,12.4,6.2c5.8,4.4,9,8.3,9.6,11.7
							c0.1,0.6,0.1,1.1,0,1.7C508.2,90.1,505.9,88.1,503.6,86.1 M486,87.8l-1.5-0.8l-0.1-0.9l1.9,0.8L486,87.8z M477.7,120.8
							c-1.8,0.1-5.4-1-10.8-3.3c-2.6-6.6-4.7-11.5-6.4-14.9c0.1,0.5,0.3,0.9,0.8,1.3c0.4-0.7,0.4-1.8,0.1-3.3
							c0.1,0.4,0.3,0.6,0.7,0.7l0.7-1.1l-1-6.5l-1.2,1c-0.8,0-1.1,0.4-0.9,1.3c-1.1-1-1.9-1.5-2.4-1.5c0.5-0.7,1.4-1.8,2.7-3.5
							c1.3-1.6,2.3-2.8,2.8-3.5c-0.2,0.3-0.2,0.7,0.1,1.2c0.3,0.5,0.6,0.7,0.9,0.7l0.9-1c-0.4-0.4-0.6-0.7-0.4-1
							c0,0.1-0.1,0.3-0.2,0.6c0,0,0.3,0.1,0.8,0.1c0.6,0,1.3,0.3,2.1,0.9c0.7,0.5,1.1,0.9,1.3,1.3c3.5,9.4,7.7,19.6,12.7,30.4
							L477.7,120.8z M463.5,84.6l-0.5-0.9l1.9-1.2l0.5,0.9L463.5,84.6z M496.7,111.6l0.2,1.1h2.8l-0.2-1.1H496.7z M495.3,100.5
							l-0.4,0.7l1.7,1.5l0.5-0.6L495.3,100.5z M493.4,107.2c-0.5-0.6-0.7-1-0.8-1.2h-3.5c2.1,1,3.8,1.8,5,2.4
							C494.2,108.2,493.9,107.8,493.4,107.2 M487.1,88l0.1,0.9l1.5,0.8l0.2-0.9L487.1,88z M456.7,90.3l0.4,2.4h1.1l-0.4-2.4H456.7z
							 M460.1,85.3c0,0.2,0-0.3,0-1.4c0-0.7-0.2-1.2-0.4-1.5c-0.8,1.1-1.6,1.7-2.4,1.9c-0.2-0.1,0.8-0.1,3-0.1
							C460.1,84.5,460,84.9,460.1,85.3 M533.5,86.4c-3-2.3-5.5-3.4-7.4-3.4c-1.6,0-2.8,0.8-3.4,2.5c-0.6,1.4-0.7,2.9-0.4,4.5
							c0.2,1.4,1,3.6,2.2,6.6c1.3,3,2,5,2.1,5.9c0.1,0.4,0.1,0.8,0,1.2c1,1.7,1.9,3,2.7,3.9c-0.1,0-0.3-0.1-0.5-0.2
							s-0.5-0.2-1.1-0.2c-0.5,0-0.8,0.1-0.8,0.3c0,0.1,0.2,0.3,0.5,0.6c2.3,2,4,3.5,4.9,4.6c2.9,0.3,5.4,0.4,7.5,0.3
							c0,0.2,0.2,0.7,0.5,1.5s0.5,1.3,0.5,1.5l-2-1.2c-0.1,0-0.3,0.2-0.5,0.7s-0.3,0.7-0.4,0.7c-0.9-0.4-1.6-0.2-1.9,0.4
							c2.8,2,4.8,3.2,6.2,3.6c-0.4,0-1.1,0.1-2,0.4s-1.7,0.4-2.2,0.4c-1.4,0-2.6-0.4-3.6-1.3l-0.8,0.9c1.6,1.8,3.4,4.9,5.4,9.2
							c1.5,3.4,2.9,6.7,4.4,10h-2.7c0,0-3.9-0.9-11.7-2.8c-3.8-7.7-6.6-13.5-8.5-17.5h-5.8c0.4-0.7,0.4-1.6,0.3-2.8
							c-0.1-0.8-0.4-1.8-0.9-3c-0.4-1.2-0.7-2-0.7-2.3c1.7,0.1,2.9-0.1,3.6-0.6c-0.1-0.4-0.3-1.3-0.8-2.7c-0.5-1.4-0.8-2.5-1-3.3
							c-0.1-0.9-0.1-1.7,0.1-2.4c2.4,2.1,4,3.2,4.9,3.2c0.5,0,0.8,0,0.9-0.1c0.1-0.1,0.2-0.1,0.1-0.2c0,0-0.1,0-0.1-0.1
							c-0.4-0.2-1.7-1.2-3.7-2.9c-1.6-1.3-2.9-2-4.1-2c-0.3,0-0.6,0-0.9,0.1l-0.7-4.3c1.6,0,2.4-0.3,2.3-0.9c-1.5-0.7-2.6-1.7-3.4-3
							c-0.3,0.4-0.4,1.1-0.2,2.2c-0.3-2-0.9-3.7-1.7-5.1c0.1-0.2,0.3-0.2,0.4-0.1c0.2,0.3,0.6,0.4,1.2,0.4s0.9-0.3,0.9-0.8
							c0.1,0.9,0,0.5-0.3-1.4c0-0.1,0.4,0.3,1.2,1c0.1,0,0.2-0.1,0.2-0.3c0-0.2,0.3-0.3,0.8-0.3c1.2,0,1.9-0.1,2.1-0.4l-0.2-1.5
							c-1.3,0-1.4,0.4-0.5,1.2c-2.2-1-3.3-2-3.5-2.9c0.6-0.5,0.9-0.8,0.8-1.1c0-0.1-0.2-0.3-0.6-0.7c-0.4-0.4-0.6-0.9-0.8-1.6
							c-0.8,0-1.5,0.4-2.2,1.3c0-0.3,0.4-1.4,1-3.1c0.4-1.3,0.6-2.4,0.5-3.1c0.2,0,0.8,0.1,1.9,0.3c0.8,0.1,1.4,0.1,1.8-0.2
							c-0.8-0.7-1.2-1.1-1.2-1.3c0-0.1,0.2-0.2,0.6-0.2c1.3,2,0.3-0.3,0.6,0h0.3c-0.8-1.3,1.2,1.2-0.3-1.3c0.1,0.4,0.3,0.8,0.6,1.2
							c-0.1-1.3,0.9-1.9,2.9-1.9c3.5,0,8.1,2,13.7,5.9c5.9,4.2,9.2,8.1,9.8,11.9c0.1,0.4,0.1,0.8,0.1,1.2
							C538,90.1,535.8,88.2,533.5,86.4 M535.7,117.8l-0.4,0.7l2.5,2.2l0.6-0.6L535.7,117.8z M528.7,113.3c-0.8-0.2-1.3-0.3-1.6-0.3
							c0,0,0.5,0.5,1.3,1.4c0.6,0.6,1,0.9,1.2,0.9c0.6,0,0.8-0.6,0.6-1.8C530,113.5,529.5,113.5,528.7,113.3 M520.8,99.9l-0.4,0.9
							l2.8,2.2l0.5-0.8L520.8,99.9z M520.7,101.8l-1.9,0.8l0.1,0.9l2.3-0.8L520.7,101.8z M517.9,99.5c-0.5,0.6-1.2,0.8-2,0.8
							c1.3,1.1,2.1,1.7,2.5,1.7C519,101.2,518.9,100.4,517.9,99.5 M515.1,97.7L515.1,97.7c0.1,1.2-0.3,1.4-1.3,0.6
							c0,0.2,0.3,0.4,0.8,0.7c0.5,0.3,0.8,0.6,0.8,0.8C515.2,98.5,515.1,97.8,515.1,97.7 M510,90.4l0.2,1.1h1.7l-0.2-1.1H510z
							 M512.7,84.2l-0.8,0.4l1.1,1.6l0.9-0.3L512.7,84.2z M513.2,77.9c-0.8,0.1-1.3,0.2-1.4,0.2c0.2,1.1,0.8,1.7,1.9,1.7
							c0-0.2,0-0.4,0.2-0.8c0.2-0.3,0.3-0.6,0.2-0.8C513.9,77.9,513.6,77.8,513.2,77.9 M562.4,86.4c-3-2.3-5.5-3.4-7.4-3.4
							c-1.6,0-2.8,0.8-3.4,2.5c-0.6,1.4-0.7,2.9-0.4,4.5c0.2,1.4,1,3.6,2.2,6.6c1.3,3,2,5,2.1,5.9c0.1,0.4,0.1,0.8,0,1.2
							c1,1.7,1.9,3,2.7,3.9c-0.1,0-0.3-0.1-0.5-0.2s-0.5-0.2-1.1-0.2c-0.5,0-0.8,0.1-0.8,0.3c0,0.1,0.2,0.3,0.5,0.6
							c2.3,2,4,3.5,4.9,4.6c2.9,0.3,5.4,0.4,7.5,0.3c0,0.2,0.2,0.7,0.5,1.5s0.5,1.3,0.5,1.5l-2-1.2c-0.1,0-0.3,0.2-0.5,0.7
							s-0.3,0.7-0.4,0.7c-0.9-0.4-1.6-0.2-1.9,0.4c2.8,2,4.8,3.2,6.2,3.6c-0.4,0-1.1,0.1-2,0.4s-1.7,0.4-2.2,0.4
							c-1.4,0-2.6-0.4-3.6-1.3l-0.8,0.9c1.6,1.8,3.4,4.9,5.4,9.2c1.5,3.4,2.9,6.7,4.4,10h-2.7c0,0-3.9-0.9-11.7-2.8
							c-3.8-7.7-6.6-13.5-8.5-17.5h-6.2c0.4-0.7,0.4-1.6,0.3-2.8c-0.1-0.8-0.4-1.8-0.9-3c-0.4-1.2-0.7-2-0.7-2.3
							c1.7,0.1,2.9-0.1,3.6-0.6c-0.1-0.4-0.3-1.3-0.8-2.7c-0.5-1.4-0.8-2.5-1-3.3c-0.1-0.9-0.1-1.7,0.1-2.4c2.4,2.1,4,3.2,4.9,3.2
							c0.5,0,0.8,0,0.9-0.1c0.1-0.1,0.2-0.1,0.1-0.2c0,0-0.1,0-0.1-0.1c-0.4-0.2-1.7-1.2-3.7-2.9c-1.6-1.3-2.9-2-4.1-2
							c-0.3,0-0.6,0-0.9,0.1l-0.7-4.3c1.6,0,2.4-0.3,2.3-0.9c-1.5-0.7-2.6-1.7-3.4-3c-0.3,0.4-0.4,1.1-0.2,2.2
							c-0.3-2-0.9-3.7-1.7-5.1c0.1-0.2,0.3-0.2,0.4-0.1c0.2,0.3,0.6,0.4,1.2,0.4c0.6,0,0.9-0.3,0.9-0.8c0.1,0.9,0,0.5-0.3-1.4
							c0-0.1,0.4,0.3,1.2,1c0.1,0,0.2-0.1,0.2-0.3c0-0.2,0.3-0.3,0.8-0.3c1.2,0,1.9-0.1,2.1-0.4l-0.2-1.5c-1.3,0-1.4,0.4-0.5,1.2
							c-2.2-1-3.3-2-3.5-2.9c0.6-0.5,0.9-0.8,0.8-1.1c0-0.1-0.2-0.3-0.6-0.7c-0.4-0.4-0.6-0.9-0.8-1.6c-0.8,0-1.5,0.4-2.2,1.3
							c0-0.3,0.4-1.4,1-3.1c0.4-1.3,0.6-2.4,0.5-3.1c0.2,0,0.8,0.1,1.9,0.3c0.8,0.1,1.4,0.1,1.8-0.2c-0.8-0.7-1.2-1.1-1.2-1.3
							c0-0.1,0.2-0.2,0.6-0.2c0.9,0.7,0.3-0.5,0.6-0.2h0.3c-0.8-1.3,0.3-0.4-0.1-0.6c0.1,0.4,0.1,0.2,0.4,0.6
							c-0.1-1.3,0.9-1.9,2.9-1.9c3.5,0,8.1,2,13.7,5.9c5.9,4.2,9.2,8.1,9.8,11.9c0.1,0.4,0.1,0.8,0.1,1.2
							C567,90.1,564.7,88.2,562.4,86.4 M564.6,117.8l-0.4,0.7l2.5,2.2l0.6-0.6L564.6,117.8z M557.6,113.3c-0.8-0.2-1.3-0.3-1.6-0.3
							c0,0,0.5,0.5,1.3,1.4c0.6,0.6,1,0.9,1.2,0.9c0.6,0,0.8-0.6,0.6-1.8C558.9,113.5,558.4,113.5,557.6,113.3 M549.7,99.9l-0.4,0.9
							l2.8,2.2l0.5-0.8L549.7,99.9z M549.6,101.8l-1.9,0.8l0.1,0.9l2.3-0.8L549.6,101.8z M546.8,99.5c-0.5,0.6-1.2,0.8-2,0.8
							c1.3,1.1,2.1,1.7,2.5,1.7C548,101.2,547.8,100.4,546.8,99.5 M544,97.7L544,97.7c0.1,1.2-0.3,1.4-1.3,0.6
							c0,0.2,0.3,0.4,0.8,0.7c0.5,0.3,0.8,0.6,0.8,0.8C544.1,98.5,544,97.8,544,97.7 M538.9,90.4l0.2,1.1h1.7l-0.2-1.1H538.9z
							 M541.6,84.2l-0.8,0.4l1.1,1.6l0.9-0.3L541.6,84.2z M542.1,77.9c-0.8,0.1-1.3,0.2-1.4,0.2c0.2,1.1,0.8,1.7,1.9,1.7
							c0-0.2,0-0.4,0.2-0.8c0.2-0.3,0.3-0.6,0.2-0.8C542.8,77.9,542.5,77.8,542.1,77.9 M603.7,76.4l-1.4-0.7l-0.1-0.9l1.7,0.7
							L603.7,76.4z M575.3,75.2l-0.4-0.8l1.7-1.1l0.4,0.8L575.3,75.2z M621.4,90.1c-1.5-0.5-3.1-1.9-5-4.2c-1.1-1.5-2.2-3-3.3-4.5
							c-0.4,0.3-0.4,1.1-0.2,2.3c-1.8-1.1-3.3-1.7-4.6-1.7c-1.2,0-1.6,2-0.9,5.9c0.4,2.4,2.1,7.5,5.3,15.1
							c2.8,6.8,5.4,12.6,7.8,17.5h-3.3c-0.4,0-1.8-0.7-4.1-2.1c-3.1-1.9-5.3-3.1-6.4-3.7c-0.8,1.3-1.7,2.5-2.5,3.8
							c-1.2,1.7-2.9,2.6-5,2.6c-0.2,0-2.2-0.6-5.9-1.9c0.8-2.6,1.2-3.9,1.2-3.9c0.1,0.1,0.6,0.4,1.6,1.1c0.6,0.4,1.2,0.7,1.7,0.7
							c3.9,0,5.2-4,3.9-12c-0.1-0.6-0.6-1.5-1.4-2.8c-1.2-1.8-1.9-3-2.1-3.5c-1.3-2.6-2.2-4.5-2.8-5.8c0.4-0.4,0.5-0.7,0.2-0.9
							c0,0-1.8-2-5.4-5.9c-2.4-2.7-4.6-4.1-6.4-4.1c-1.3,0-2.4,0.6-3.4,1.7c0.5-0.6,0.5-1.2-0.1-1.7c-0.8,1-1.2,2.1-1.1,3.5
							c0.1,1.2,0.1,2.4,0.2,3.5c-0.4-0.2-0.8-0.7-1.3-1.5s-0.9-1.3-1.3-1.4c-1.1,0.7-2,1.1-2.8,1.1c0.5-0.6,0.3-1.4-0.7-2.2
							c-0.2,0.5-0.4,1.3-0.6,2.4c-0.1,0.7-0.4,1.2-0.7,1.4l0.9,0.9c0.8-0.6,1.5-1,2.1-1.2c0.3,2.2,1.2,4.3,2.4,6.4
							c-0.1-0.4-0.3-0.8-0.6-1.2c-0.3,0.4-0.3,1.2-0.1,2.4c-0.6-1-1.6-1.5-3-1.5c0.2,0,0.4-0.2,0.6-0.6c0.2-0.6,0.4-1,0.5-1.1
							l-0.9-0.9c0,0.3-0.6,0.4-1.9,0.4c0.5-0.6,0.5-1.1,0.1-1.5c0,0-0.3,0.8-0.8,2.3c-0.3,0.7-0.6,1.2-1,1.4c1.2,0.4,2,0.6,2.5,0.6
							c0.5,1.5,1.2,2.2,1.8,2.1c0.2-0.3,0.3-0.6,0.3-0.9c-0.1-0.3,0.1-0.3,0.5-0.1c0.7,0.3,1.2,0.4,1.6,0.4c0.6,0,1.2-0.4,1.8-1.1
							c0,0.3,0,0.5,0.1,0.8c0.2,1,0.6,2.1,1.3,3.1c0.4,0.6,0.8,1.1,1.2,1.7l-0.9,1.2c0.2,0.2,0.5,0.3,1,0.4s0.8,0.2,1,0.4
							c0.1-0.2,0.3-0.4,0.5-0.7c0.2-0.3,0.4-0.5,0.6-0.7c-0.8-0.5-1.7-1.3-2.5-2.4c-0.9-1.1-1.4-2-1.5-2.7c-0.2-1,0-1.7,0.4-2.3
							c0.9,0.8,1.4,1.3,1.5,1.3c0.3,2.1,1.9,5.6,4.6,10.4c-0.1-0.8-0.6-1.3-1.5-1.3c0.4,1.6,1.8,3.6,4.2,5.8
							c2.5,2.2,3.8,3.8,3.9,4.8c0.1,0.5,0,1.2-0.3,2.2c-0.3,0.9-0.4,1.5-0.3,1.9c-8.4-4.2-12.7-7.7-12.8-10.5
							c-0.3,0.3-0.4,0.9-0.3,1.8c-0.2-0.3-1.1-1.3-2.7-3c-1.2-1.4-2-2.4-2.3-3c-0.1-0.4,0.2-1,0.8-1.8c-1.7-0.6-3.1-1.7-4-3.2
							c-0.6-1.4-1.2-2.8-1.8-4.2c0.7,0.7,1.1,0.6,0.9-0.2c-0.5-0.3-0.8-0.7-1-1.3c-0.2-0.6-0.1-0.9,0.1-0.9c0.4,0,0.5-0.2,0.4-0.7
							c-1.6-1-2.6-2.8-3-5.4c-0.1-0.4,0-1.5,0.1-3.3s0.1-3.1,0-3.9c1.2,0,2.2-0.5,2.8-1.5c-0.6-0.8-1.1-1.5-1.3-1.9
							c1.3,0.4,2.3,0.6,2.8,0.6c-0.4-0.5-0.7-1-0.7-1.4c-0.1-0.7,0.3-1.5,1.3-2.2l1.3-1.2c1.2,0.4,3.1,0.4,5.9,0.2
							c-0.5,0.6-0.7,1.2-0.6,2c0.1,0.8,0.5,1.4,1,1.8c-0.5,0.1-0.7,0.4-0.6,0.8c0.1,0.3,0.3,0.9,0.9,1.7c0.5,0.8,0.9,1.4,1,1.7
							c0.1-0.1,0.2-0.5,0.4-1.1c0.1-0.4,0.3-0.6,0.5-0.6c0.1,0.7,0.4,1.1,0.9,1.1c0.3-0.5,0.5-1,0.7-1.4c-0.1-0.7-0.2-1.4-0.2-2.2
							l-0.9,1.1c0.7-0.9,0.6-2-0.3-3.3c1.5,1.1,2.4,2.1,3,2.8c0.3-0.3,0.6-0.4,0.9-0.2c-1,0.7-1.6,1.3-1.9,1.7l0.7,2
							c1.1-0.6,1.8-0.9,2.1-1c-0.1-0.6-0.5-0.9-1.2-0.9c0.5-0.7,1.1-1,1.8-1c4.9,5.5,7.8,8.9,8.8,10c0-1.1-0.1-2.9-0.4-5.4
							c-0.2-2.2-0.3-3.7-0.2-4.4c0.7-3.6,2.7-5.4,5.9-5.4c2.9,0,6.1,1.4,9.6,4.1c3.5,2.9,7,5.9,10.5,8.9L621.4,90.1z M578.3,94.8
							c-0.1-0.6-0.4-1.4-0.9-2.6c-0.5-1.1-0.8-1.9-0.9-2.4c0.1,0.4,0.3,0.7,0.7,0.9l0.9-1.2c1.1,1.5,1.9,2.9,2.4,3.9
							C579.7,93.6,579,94,578.3,94.8 M572,94.5l-0.4-0.9l1.2-0.7l0.4,0.8L572,94.5z M599.5,118.6l0.1,0.8l1.4,0.7l0.2-0.8
							L599.5,118.6z M605.4,107.8l0.4,2.5c0.3-1.2,0.5-2.2,0.8-3.1C606,107.6,605.6,107.8,605.4,107.8 M601.3,91.5l0.2,1.5h0.9
							l-0.2-1.5H601.3z M593.8,87.4l0.3,2.2h0.9l-0.3-2.2H593.8z M580.1,104.9l0.3,2.2h0.9l-0.3-2.2H580.1z M579.7,102.6l0.2,1.5
							h0.9l-0.2-1.5H579.7z M577.6,101.4l1.3,1.3c-0.6,0.6-1.1,1.1-1.4,1.3c0.2,0,0.5-0.1,1-0.2c0.5-0.2,0.8-0.2,1-0.2
							C579.3,102.6,578.7,101.9,577.6,101.4 M573.9,99.4c-0.5-0.7-0.8-1.1-0.8-1.3c0,0.1,0,0.4-0.1,0.9c0,0.3,0,0.5,0.2,0.5l1.4,1.2
							C574.6,100.5,574.4,100,573.9,99.4 M569.8,96.7l0.2,1.5h0.9l-0.2-1.5H569.8z M576.6,80.3c0.1,0.7,0.5,1.4,1.2,2
							c-0.4,1.1-0.5,2.3-0.3,3.8c0.1-0.1,0.3-0.6,0.6-1.4s0.6-1.4,0.9-1.8C577.9,81.8,577.1,81,576.6,80.3 M578,80.1l0.1,0.9
							l1.4,0.7l0.2-0.8L578,80.1z M576.1,82l-0.4,1.7h0.8l0.4-1.4L576.1,82z M569.7,89.7l0.3,1.6h0.9l-0.3-1.6H569.7z M572.1,85.3
							l-2.6,1.3l0.1,0.9l3-1.3L572.1,85.3z M575,76.3l0.4,2.8h0.9l-0.4-2.8H575z M573.5,78.5c-0.5-0.4-0.8-0.8-0.9-1.2
							c0,0-0.6,0.1-1.9,0.2l0.7,4.4c0.9,0.8,1.6,1.5,2.1,1.9c0.4-0.5,0.4-1.4,0.2-2.9c-0.2,0.2-0.7-0.1-1.6-0.9l0.7-0.8
							c0.3,0.3,0.9,0.4,1.9,0.4C574.4,79.2,574.1,78.8,573.5,78.5 M569.5,81.8l-0.3,0.8l2.1,1.4l0.4-0.8L569.5,81.8z M568.2,82
							l-0.7,0.4l0.9,1.5l0.7-0.3L568.2,82z M569.2,79.2l-0.4,1.4l0.8,0.3l0.4-1.7L569.2,79.2L569.2,79.2z"/>
					</g>
				</g>
			</g>
		</g>
	</g>
</g>
</svg>
