<?xml version="1.0" encoding="utf-8"?>
<!-- Generator: Adobe Illustrator 24.0.0, SVG Export Plug-In . SVG Version: 6.00 Build 0)  -->
<svg version="1.1" id="Layer_1" xmlns="http://www.w3.org/2000/svg" xmlns:xlink="http://www.w3.org/1999/xlink" x="0px" y="0px"
	 viewBox="0 0 1948 607" style="enable-background:new 0 0 1948 607;" xml:space="preserve">
<style type="text/css">
	.st0{fill:#440099;}
	.st1{fill:#FF0000;}
</style>
<g>
	<g>
		<path class="st0" d="M303.44,499.3c-107.95,0-195.78-87.83-195.78-195.78s87.83-195.78,195.78-195.78
			c107.95,0,195.78,87.83,195.78,195.78S411.39,499.3,303.44,499.3z M303.44,154.06c-82.41,0-149.46,67.05-149.46,149.46
			s67.05,149.46,149.46,149.46S452.9,385.93,452.9,303.52S385.85,154.06,303.44,154.06z"/>
		<path class="st1" d="M724.18,499.31c-107.95,0-195.78-87.83-195.78-195.78s87.83-195.78,195.78-195.78
			c69.67,0,134.64,37.5,169.57,97.86l11.61,20.06L607.94,397.38c27.42,33.9,69.34,55.61,116.24,55.61
			c82.41,0,149.46-67.05,149.46-149.46h46.32C919.96,411.48,832.14,499.31,724.18,499.31z M724.18,154.06
			c-82.41,0-149.46,67.05-149.46,149.46c0,18.95,3.54,37.08,10,53.77l255.75-147.66C812.32,174.9,769.55,154.06,724.18,154.06z"/>
	</g>
	<g>
		<path class="st0" d="M1373.07,314.15c-0.04,8.15-7.05,15.11-15.16,15.06c-8.18-0.05-15-6.96-14.98-15.18
			c0.02-8.31,6.75-14.96,15.1-14.95C1366.31,299.1,1373.12,305.92,1373.07,314.15z"/>
		<path class="st0" d="M1281.5,314.03c-0.02,8.22,6.79,15.12,14.98,15.18c8.1,0.05,15.11-6.91,15.16-15.06
			c0.05-8.23-6.76-15.05-15.04-15.07C1288.25,299.07,1281.52,305.73,1281.5,314.03z"/>
		<path class="st0" d="M1220.06,314.03c-0.02,8.22,6.79,15.12,14.98,15.18c8.1,0.05,15.11-6.91,15.16-15.06
			c0.05-8.23-6.76-15.05-15.04-15.07C1226.81,299.07,1220.08,305.73,1220.06,314.03z"/>
		<path class="st0" d="M1594.52,299.09c-8.35-0.02-15.03,6.61-15.06,14.96c-0.03,8.22,6.77,15.13,14.96,15.17
			c8.13,0.04,15.08-6.89,15.11-15.07C1609.55,305.87,1602.82,299.11,1594.52,299.09z"/>
		<path class="st0" d="M1173.75,122.19c-8.28-0.01-14.88,6.62-14.86,14.9c0.02,8.15,6.89,14.99,14.97,14.9
			c7.99-0.08,14.78-6.91,14.83-14.91C1188.73,128.92,1181.99,122.2,1173.75,122.19z"/>
		<path class="st0" d="M1084.64,166.55c-31.46,0-57.05,25.59-57.05,57.05c0,31.45,25.59,57.05,57.05,57.05
			c31.46,0,57.05-25.59,57.05-57.05C1141.69,192.14,1116.1,166.55,1084.64,166.55z M1084.64,257.3c-18.58,0-33.7-15.12-33.7-33.7
			s15.12-33.7,33.7-33.7c18.58,0,33.7,15.12,33.7,33.7S1103.22,257.3,1084.64,257.3z"/>
		<path class="st0" d="M1490.26,280.64c9.42,0,18.46-3.94,26.19-10.25v6.82h23.35V169.5h-23.35v61.61
			c0,14.44-11.75,26.19-26.19,26.19s-26.19-11.75-26.19-26.19V169.5h-23.35v61.61C1440.73,258.42,1462.95,280.64,1490.26,280.64z"/>
		<path class="st0" d="M1812.32,169.5v10.12c-9.18-8.01-20.67-13.06-33.7-13.06c-31.46,0-57.05,25.59-57.05,57.05
			c0,31.45,25.59,57.05,57.05,57.05c13.03,0,24.52-5.05,33.7-13.06v9.64h23.35v-45.45v-16.34V169.5H1812.32z M1778.62,257.3
			c-18.58,0-33.7-15.12-33.7-33.7s15.12-33.7,33.7-33.7c18.58,0,33.7,15.12,33.7,33.7S1797.2,257.3,1778.62,257.3z"/>
		<rect x="1162.11" y="169.5" class="st0" width="23.35" height="107.72"/>
		<rect x="1162.11" y="303.52" class="st0" width="23.35" height="150.95"/>
		<rect x="1346.33" y="346.72" class="st0" width="23.35" height="107.72"/>
		<rect x="1582.82" y="346.72" class="st0" width="23.35" height="107.72"/>
		<rect x="1632.43" y="303.49" class="st0" width="23.35" height="150.95"/>
		<rect x="1682.04" y="303.49" class="st0" width="23.35" height="150.95"/>
		<path class="st0" d="M1296.72,346.72v10.12c-9.18-8.01-20.67-13.06-33.7-13.06c-31.46,0-57.05,25.59-57.05,57.05
			c0,31.46,25.59,57.05,57.05,57.05c13.03,0,24.52-5.05,33.7-13.06v9.64h23.35v-45.45v-16.34v-45.93H1296.72z M1263.02,434.52
			c-18.58,0-33.7-15.12-33.7-33.7c0-18.58,15.12-33.7,33.7-33.7c18.58,0,33.7,15.12,33.7,33.7
			C1296.72,419.4,1281.6,434.52,1263.02,434.52z"/>
		<path class="st0" d="M1510.57,343.3c-13.63,0-25.89,5.97-34.32,15.42c-8.43-9.45-20.69-15.42-34.32-15.42
			c-7.79,0-15.67,3.41-22.65,8.92v-5.49h-23.35v107.72h23.35v-65.15c0-12.49,10.16-22.65,22.65-22.65
			c12.49,0,22.65,10.16,22.65,22.65v65.15h23.35v-65.15c0-12.49,10.16-22.65,22.65-22.65s22.65,10.16,22.65,22.65v65.15h23.35
			v-65.15C1556.56,363.93,1535.93,343.3,1510.57,343.3z"/>
		<path class="st0" d="M1116.49,412.25c-4.57,14.03-17.12,24.14-31.85,24.14c-9.07,0-17.31-3.84-23.38-10.05l78.08-45.08l-5.31-9.19
			l-0.02,0.01c-9.87-17.04-28.3-28.54-49.38-28.54c-31.46,0-57.05,25.59-57.05,57.05s25.59,57.05,57.05,57.05
			c27.46,0,50.44-19.5,55.84-45.37H1116.49z M1084.64,364.77c9.07,0,17.31,3.84,23.38,10.05l-56.45,32.59
			c-0.4-2.21-0.62-4.5-0.62-6.84C1050.94,380.84,1066.06,364.77,1084.64,364.77z"/>
		<path class="st0" d="M1398.03,235.27c-4.57,14.03-17.12,24.14-31.85,24.14c-9.07,0-17.31-3.84-23.38-10.05l78.08-45.08l-5.31-9.19
			l-0.02,0.01c-9.87-17.04-28.3-28.54-49.38-28.54c-31.46,0-57.05,25.59-57.05,57.05s25.59,57.05,57.05,57.05
			c27.46,0,50.44-19.5,55.84-45.37H1398.03z M1366.17,187.79c9.07,0,17.31,3.84,23.38,10.05l-56.45,32.59
			c-0.4-2.21-0.62-4.5-0.62-6.84C1332.47,203.85,1347.59,187.79,1366.17,187.79z"/>
		<path class="st0" d="M1814.71,412.25c-4.57,14.03-17.12,24.14-31.85,24.14c-9.07,0-17.31-3.84-23.38-10.05l78.08-45.08l-5.31-9.19
			l-0.02,0.01c-9.87-17.04-28.3-28.54-49.38-28.54c-31.46,0-57.05,25.59-57.05,57.05s25.59,57.05,57.05,57.05
			c27.46,0,50.44-19.5,55.84-45.37H1814.71z M1782.85,364.77c9.07,0,17.31,3.84,23.38,10.05l-56.45,32.59
			c-0.4-2.21-0.62-4.5-0.62-6.84C1749.15,380.84,1764.27,364.77,1782.85,364.77z"/>
		<g>
			<polygon class="st0" points="1648.19,248.04 1648.19,245.39 1648.19,245.39 			"/>
			<path class="st0" d="M1709.9,190.73V169.5h-38.36v-30.44h-0.1l-23.25,13.42l0.05,92.91c0,19.44,15.82,35.26,35.26,35.26
				c9.52,0,18.5-2.36,26.4-6.5v-16.91h-26.4c-6.53,0-11.84-5.31-11.84-11.84h-0.12v-54.65H1709.9z"/>
		</g>
		<g>
			<polygon class="st0" points="1566.06,248.04 1566.06,245.39 1566.06,245.39 			"/>
			<path class="st0" d="M1627.77,190.73V169.5h-38.36v-30.44h-0.1l-23.25,13.42l0.05,92.91c0,19.44,15.82,35.26,35.26,35.26
				c9.52,0,18.5-2.36,26.4-6.5v-16.91h-26.4c-6.53,0-11.84-5.31-11.84-11.84h-0.12v-54.65H1627.77z"/>
		</g>
		<polygon class="st0" points="1259.9,222.28 1307.29,169.5 1275.91,169.5 1235.15,214.9 1235.15,126.3 1211.81,126.3
			1211.81,277.22 1235.15,277.22 1235.15,229.63 1277.69,277.22 1309.01,277.22 		"/>
	</g>
</g>
</svg>
